<?xml version="1.0" encoding="UTF-8" ?>
<!DOCTYPE svg PUBLIC "-//W3C//DTD SVG 1.1//EN" "http://www.w3.org/Graphics/SVG/1.1/DTD/svg11.dtd">
<svg width="167pt" height="156pt" viewBox="0 0 167 156" version="1.1" xmlns="http://www.w3.org/2000/svg">
<path fill="#ffffff" d=" M 0.00 0.00 L 167.00 0.00 L 167.00 70.39 C 165.55 61.60 163.31 52.85 159.09 44.95 C 145.02 17.69 114.50 0.14 83.94 0.98 C 65.35 0.43 46.76 6.74 31.85 17.77 C 16.90 28.98 5.53 45.43 1.98 63.92 C -1.11 80.01 1.07 97.27 8.97 111.72 C 11.06 116.05 13.85 120.02 16.79 123.81 C 24.51 133.36 34.27 141.30 45.37 146.60 C 69.99 158.64 100.37 158.25 124.61 145.45 C 135.02 139.94 144.49 132.37 151.55 122.90 C 155.41 118.20 158.51 112.91 160.92 107.33 C 164.13 100.51 165.70 93.11 167.00 85.73 L 167.00 156.00 L 0.00 156.00 L 0.00 0.00 Z" />
<path fill="#000068" d=" M 31.85 17.77 C 46.76 6.74 65.35 0.43 83.94 0.98 C 114.50 0.14 145.02 17.69 159.09 44.95 C 163.31 52.85 165.55 61.60 167.00 70.39 L 167.00 85.73 C 165.70 93.11 164.13 100.51 160.92 107.33 L 159.25 108.40 C 160.20 106.08 161.08 103.74 161.90 101.37 C 163.09 97.80 164.07 94.15 164.74 90.45 C 165.38 86.64 165.84 82.79 165.95 78.93 C 165.92 73.25 165.31 67.58 164.06 62.04 C 162.95 57.42 161.43 52.90 159.52 48.55 C 157.10 43.27 154.11 38.25 150.57 33.65 C 138.27 17.88 119.95 7.19 100.34 3.56 C 69.14 -2.66 34.24 9.54 15.62 35.76 C 12.35 40.31 9.64 45.25 7.42 50.40 C 5.83 54.15 4.63 58.06 3.69 62.03 C 2.34 67.55 1.88 73.24 1.96 78.92 C 2.01 81.96 2.15 85.00 2.59 88.01 C 3.14 91.41 3.84 94.79 4.77 98.11 C 5.87 101.95 7.82 105.52 8.58 109.46 C 8.68 110.03 8.87 111.15 8.97 111.72 C 1.07 97.27 -1.11 80.01 1.98 63.92 C 5.53 45.43 16.90 28.98 31.85 17.77 Z" />
<path fill="#0038ea" d=" M 15.62 35.76 C 34.24 9.54 69.14 -2.66 100.34 3.56 C 119.95 7.19 138.27 17.88 150.57 33.65 C 144.27 33.98 137.97 33.98 131.67 33.97 C 131.68 28.80 131.75 23.63 131.49 18.46 C 125.33 18.61 119.15 18.16 113.01 18.65 C 111.44 23.08 112.71 28.28 112.34 33.01 C 93.48 33.06 74.62 32.70 55.77 33.16 C 52.66 28.12 49.90 22.86 46.35 18.11 C 42.60 24.08 39.05 30.16 35.41 36.20 C 28.82 35.89 22.22 35.90 15.62 35.76 Z" />
<path fill="#800513" d=" M 35.41 36.20 C 39.05 30.16 42.60 24.08 46.35 18.11 C 49.90 22.86 52.66 28.12 55.77 33.16 C 58.49 37.77 61.33 42.30 63.99 46.95 C 64.33 47.56 65.01 48.77 65.35 49.38 C 62.53 49.48 59.71 49.53 56.88 49.57 L 56.08 49.58 C 56.08 59.30 56.21 69.01 56.13 78.73 C 60.02 72.89 63.25 66.56 67.87 61.24 C 68.09 64.40 68.17 67.56 68.20 70.72 C 78.79 70.71 89.38 70.72 99.97 70.72 C 100.01 67.55 100.09 64.38 100.35 61.22 C 105.09 66.62 108.27 73.14 112.32 79.04 C 112.32 73.02 112.33 67.00 112.33 60.98 C 112.33 56.34 112.34 51.71 112.33 47.08 C 112.33 42.39 112.34 37.70 112.34 33.01 C 112.71 28.28 111.44 23.08 113.01 18.65 C 119.15 18.16 125.33 18.61 131.49 18.46 C 131.75 23.63 131.68 28.80 131.67 33.97 C 131.66 39.29 131.68 44.60 131.67 49.92 C 131.66 53.96 131.67 58.01 131.67 62.05 C 131.66 67.66 131.68 73.27 131.67 78.89 C 131.67 82.90 131.68 86.91 131.67 90.92 C 131.67 94.60 131.67 98.29 131.67 101.97 C 131.67 103.64 131.67 105.30 131.67 106.97 C 134.69 106.98 137.72 107.00 140.74 107.07 C 139.71 109.19 138.62 111.29 137.42 113.32 C 133.97 118.91 130.64 124.58 127.27 130.22 C 125.56 133.06 123.81 135.87 122.00 138.65 C 121.50 137.90 121.01 137.16 120.52 136.41 C 117.17 131.11 114.10 125.64 110.81 120.31 C 108.19 115.96 105.43 111.69 103.30 107.07 C 106.30 107.00 109.31 106.99 112.32 106.99 L 112.32 106.10 C 112.32 97.85 112.37 89.60 112.34 81.36 C 108.38 87.35 104.96 93.69 100.62 99.43 C 100.11 96.31 99.97 93.15 99.93 90.00 C 89.34 90.00 78.75 90.00 68.16 90.00 C 68.13 93.13 68.04 96.25 67.83 99.37 C 63.08 94.17 60.47 87.47 56.06 82.05 C 56.01 86.29 56.07 90.54 56.16 94.78 C 56.11 101.12 56.02 107.47 56.17 113.82 C 56.03 121.88 56.15 129.94 56.08 138.00 C 49.69 138.00 43.31 138.00 36.92 138.00 C 36.82 130.22 37.07 122.43 36.71 114.65 C 36.88 104.94 37.11 95.22 36.72 85.52 C 36.90 73.60 36.77 61.67 36.92 49.75 C 33.84 49.56 30.76 49.50 27.67 49.40 C 30.08 44.90 32.80 40.58 35.41 36.20 Z" />
<path fill="#f85447" d=" M 113.95 20.00 C 119.30 20.00 124.65 20.00 130.00 20.00 C 130.01 29.35 129.99 38.70 129.99 48.04 C 124.64 48.03 119.29 48.03 113.95 48.06 C 113.94 38.70 113.93 29.35 113.95 20.00 Z" />
<path fill="#f75346" d=" M 46.48 20.96 C 51.91 29.94 57.29 38.96 62.67 47.97 C 60.12 47.97 57.55 47.83 55.00 48.13 C 54.06 49.45 54.64 51.42 54.37 52.98 C 49.05 52.94 43.73 52.93 38.41 52.97 C 38.41 51.35 38.41 49.73 38.40 48.11 C 35.69 48.02 32.98 47.97 30.27 47.94 C 35.66 38.94 41.08 29.96 46.48 20.96 Z" />
<path fill="#0035e1" d=" M 55.77 33.16 C 74.62 32.70 93.48 33.06 112.34 33.01 C 112.34 37.70 112.33 42.39 112.33 47.08 C 96.22 46.73 80.10 47.18 63.99 46.95 C 61.33 42.30 58.49 37.77 55.77 33.16 Z" />
<path fill="#0035df" d=" M 131.67 33.97 C 137.97 33.98 144.27 33.98 150.57 33.65 C 154.11 38.25 157.10 43.27 159.52 48.55 C 157.07 50.36 153.92 50.00 151.06 50.04 C 144.60 49.92 138.13 50.03 131.67 49.92 C 131.68 44.60 131.66 39.29 131.67 33.97 Z" />
<path fill="#0034de" d=" M 7.42 50.40 C 9.64 45.25 12.35 40.31 15.62 35.76 C 22.22 35.90 28.82 35.89 35.41 36.20 C 32.80 40.58 30.08 44.90 27.67 49.40 C 30.76 49.50 33.84 49.56 36.92 49.75 C 31.12 51.70 24.97 50.83 18.98 51.00 C 15.12 51.08 11.26 50.84 7.42 50.40 Z" />
<path fill="#0032d5" d=" M 63.99 46.95 C 80.10 47.18 96.22 46.73 112.33 47.08 C 112.34 51.71 112.33 56.34 112.33 60.98 C 93.97 60.91 75.61 61.13 57.25 60.85 C 57.06 57.09 56.93 53.33 56.88 49.57 C 59.71 49.53 62.53 49.48 65.35 49.38 C 65.01 48.77 64.33 47.56 63.99 46.95 Z" />
<path fill="#f44e41" d=" M 113.95 48.06 C 119.29 48.03 124.64 48.03 129.99 48.04 C 130.02 53.34 129.98 58.64 129.99 63.94 C 124.64 63.93 119.30 63.95 113.95 63.98 C 113.94 58.67 113.93 53.36 113.95 48.06 Z" />
<path fill="#0031d3" d=" M 159.52 48.55 C 161.43 52.90 162.95 57.42 164.06 62.04 C 153.26 62.21 142.46 62.23 131.67 62.05 C 131.67 58.01 131.66 53.96 131.67 49.92 C 138.13 50.03 144.60 49.92 151.06 50.04 C 153.92 50.00 157.07 50.36 159.52 48.55 Z" />
<path fill="#0031d3" d=" M 3.69 62.03 C 4.63 58.06 5.83 54.15 7.42 50.40 C 11.26 50.84 15.12 51.08 18.98 51.00 C 24.97 50.83 31.12 51.70 36.92 49.75 C 36.77 61.67 36.90 73.60 36.72 85.52 L 36.64 84.38 C 36.52 82.55 36.35 80.71 36.26 78.88 C 36.14 73.33 36.18 67.78 35.72 62.24 C 25.04 61.91 14.36 62.36 3.69 62.03 Z" />
<path fill="#002ec9" d=" M 56.08 49.58 L 56.88 49.57 C 56.93 53.33 57.06 57.09 57.25 60.85 C 75.61 61.13 93.97 60.91 112.33 60.98 C 112.33 67.00 112.32 73.02 112.32 79.04 C 108.27 73.14 105.09 66.62 100.35 61.22 C 100.09 64.38 100.01 67.55 99.97 70.72 C 89.38 70.72 78.79 70.71 68.20 70.72 C 68.17 67.56 68.09 64.40 67.87 61.24 C 63.25 66.56 60.02 72.89 56.13 78.73 C 56.21 69.01 56.08 59.30 56.08 49.58 Z" />
<path fill="#f34c40" d=" M 38.41 52.97 C 43.73 52.93 49.05 52.94 54.37 52.98 C 54.54 57.30 54.46 61.62 54.46 65.95 C 49.11 65.99 43.76 66.04 38.41 66.08 C 38.40 61.71 38.38 57.34 38.41 52.97 Z" />
<path fill="#002dc3" d=" M 3.69 62.03 C 14.36 62.36 25.04 61.91 35.72 62.24 C 36.18 67.78 36.14 73.33 36.26 78.88 C 24.83 78.86 13.39 78.71 1.96 78.92 C 1.88 73.24 2.34 67.55 3.69 62.03 Z" />
<path fill="#002dc3" d=" M 131.67 62.05 C 142.46 62.23 153.26 62.21 164.06 62.04 C 165.31 67.58 165.92 73.25 165.95 78.93 C 154.53 78.78 143.10 78.79 131.67 78.89 C 131.68 73.27 131.66 67.66 131.67 62.05 Z" />
<path fill="#ef453a" d=" M 113.95 63.98 C 119.30 63.95 124.64 63.93 129.99 63.94 C 130.02 68.98 129.97 74.02 129.98 79.06 C 124.64 78.94 119.29 78.93 113.95 79.04 C 113.95 74.02 113.94 69.00 113.95 63.98 Z" />
<path fill="#f3372a" d=" M 101.57 72.18 C 101.59 69.85 101.62 67.53 101.64 65.21 C 104.83 70.16 107.92 75.19 111.09 80.16 C 110.37 81.38 109.65 82.61 108.94 83.85 L 108.65 83.84 C 92.27 83.69 75.87 83.53 59.48 83.96 C 58.69 82.72 57.90 81.48 57.11 80.24 C 60.24 75.41 63.12 70.40 66.46 65.71 C 66.52 67.86 66.56 70.01 66.61 72.16 C 78.26 72.27 89.91 72.24 101.57 72.18 Z" />
<path fill="#ee4439" d=" M 38.41 66.08 C 43.76 66.04 49.11 65.99 54.46 65.95 C 54.50 70.99 54.45 76.04 54.46 81.09 C 49.11 81.13 43.76 81.14 38.41 81.13 C 38.43 76.11 38.37 71.09 38.41 66.08 Z" />
<path fill="#0028b2" d=" M 1.96 78.92 C 13.39 78.71 24.83 78.86 36.26 78.88 C 36.35 80.71 36.52 82.55 36.64 84.38 C 36.58 85.32 36.48 87.18 36.42 88.11 C 25.15 87.92 13.87 87.92 2.59 88.01 C 2.15 85.00 2.01 81.96 1.96 78.92 Z" />
<path fill="#ea3a30" d=" M 113.95 79.04 C 119.29 78.93 124.64 78.94 129.98 79.06 C 130.01 83.39 129.98 87.72 129.98 92.04 C 124.64 92.07 119.30 92.06 113.97 92.04 C 113.94 87.70 113.93 83.37 113.95 79.04 Z" />
<path fill="#0027b1" d=" M 131.67 78.89 C 143.10 78.79 154.53 78.78 165.95 78.93 C 165.84 82.79 165.38 86.64 164.74 90.45 C 153.74 91.39 142.69 90.60 131.67 90.92 C 131.68 86.91 131.67 82.90 131.67 78.89 Z" />
<path fill="#e8372c" d=" M 38.41 81.13 C 43.76 81.14 49.11 81.13 54.46 81.09 C 54.52 87.36 54.43 93.62 54.45 99.88 C 49.11 99.80 43.76 99.79 38.42 99.85 C 38.44 93.61 38.33 87.37 38.41 81.13 Z" />
<path fill="#001f9c" d=" M 56.06 82.05 C 60.47 87.47 63.08 94.17 67.83 99.37 C 68.04 96.25 68.13 93.13 68.16 90.00 C 78.75 90.00 89.34 90.00 99.93 90.00 C 99.97 93.15 100.11 96.31 100.62 99.43 C 104.96 93.69 108.38 87.35 112.34 81.36 C 112.37 89.60 112.32 97.85 112.32 106.10 C 93.97 106.00 75.62 106.49 57.29 105.84 C 56.89 102.15 56.40 98.48 56.16 94.78 C 56.07 90.54 56.01 86.29 56.06 82.05 Z" />
<path fill="#ee281b" d=" M 59.48 83.96 C 75.87 83.53 92.27 83.69 108.65 83.84 C 106.66 87.69 104.24 91.29 101.76 94.83 C 101.69 92.67 101.64 90.51 101.57 88.35 C 90.11 88.21 78.60 88.00 67.15 88.42 C 65.76 90.14 66.74 92.88 66.46 95.00 C 64.12 91.33 61.72 87.70 59.48 83.96 Z" />
<path fill="#001e94" d=" M 36.64 84.38 L 36.72 85.52 C 37.11 95.22 36.88 104.94 36.71 114.65 L 36.66 115.59 C 36.32 114.10 35.97 112.62 35.60 111.14 C 26.63 109.91 17.23 112.79 8.58 109.46 C 7.82 105.52 5.87 101.95 4.77 98.11 C 15.14 97.87 25.52 98.22 35.89 97.91 C 36.03 94.64 36.20 91.37 36.42 88.11 C 36.48 87.18 36.58 85.32 36.64 84.38 Z" />
<path fill="#0023a5" d=" M 2.59 88.01 C 13.87 87.92 25.15 87.92 36.42 88.11 C 36.20 91.37 36.03 94.64 35.89 97.91 C 25.52 98.22 15.14 97.87 4.77 98.11 C 3.84 94.79 3.14 91.41 2.59 88.01 Z" />
<path fill="#00219f" d=" M 131.67 90.92 C 142.69 90.60 153.74 91.39 164.74 90.45 C 164.07 94.15 163.09 97.80 161.90 101.37 C 151.88 102.78 141.74 101.90 131.67 101.97 C 131.67 98.29 131.67 94.60 131.67 90.92 Z" />
<path fill="#e52f27" d=" M 113.97 92.04 C 119.30 92.06 124.64 92.07 129.98 92.04 C 130.02 96.37 130.01 100.70 129.93 105.03 C 124.62 104.92 119.32 104.88 114.02 104.93 C 113.92 100.63 113.91 96.33 113.97 92.04 Z" />
<path fill="#001987" d=" M 56.16 94.78 C 56.40 98.48 56.89 102.15 57.29 105.84 C 75.62 106.49 93.97 106.00 112.32 106.10 L 112.32 106.99 C 109.31 106.99 106.30 107.00 103.30 107.07 C 105.43 111.69 108.19 115.96 110.81 120.31 C 104.92 121.36 98.93 121.18 92.97 121.11 C 80.91 121.24 68.85 120.77 56.79 121.14 C 56.64 118.69 56.34 116.26 56.17 113.82 C 56.02 107.47 56.11 101.12 56.16 94.78 Z" />
<path fill="#e32a20" d=" M 38.42 99.85 C 43.76 99.79 49.11 99.80 54.45 99.88 C 54.50 103.63 54.49 107.37 54.47 111.11 C 49.11 111.02 43.76 110.98 38.40 111.02 C 38.38 107.30 38.37 103.57 38.42 99.85 Z" />
<path fill="#001c91" d=" M 131.67 101.97 C 141.74 101.90 151.88 102.78 161.90 101.37 C 161.08 103.74 160.20 106.08 159.25 108.40 C 157.96 110.11 156.76 111.89 155.57 113.67 C 149.52 114.10 143.45 114.06 137.42 113.32 C 138.62 111.29 139.71 109.19 140.74 107.07 C 137.72 107.00 134.69 106.98 131.67 106.97 C 131.67 105.30 131.67 103.64 131.67 101.97 Z" />
<path fill="#e2251c" d=" M 114.02 104.93 C 119.32 104.88 124.62 104.92 129.93 105.03 C 130.02 106.18 130.12 107.34 130.22 108.49 C 132.92 108.50 135.62 108.53 138.33 108.56 C 136.88 111.05 135.40 113.52 133.87 115.97 C 125.96 115.91 118.05 116.08 110.14 115.98 C 108.62 113.56 107.20 111.07 105.87 108.54 C 108.52 108.50 111.17 108.47 113.82 108.43 C 113.87 107.55 113.97 105.80 114.02 104.93 Z" />
<path fill="#00157e" d=" M 155.57 113.67 C 156.76 111.89 157.96 110.11 159.25 108.40 L 160.92 107.33 C 158.51 112.91 155.41 118.20 151.55 122.90 C 148.08 124.82 145.60 127.99 142.45 130.30 C 137.53 131.91 132.26 130.94 127.27 130.22 C 130.64 124.58 133.97 118.91 137.42 113.32 C 143.45 114.06 149.52 114.10 155.57 113.67 Z" />
<path fill="#001783" d=" M 8.58 109.46 C 17.23 112.79 26.63 109.91 35.60 111.14 C 35.97 112.62 36.32 114.10 36.66 115.59 C 36.46 118.72 36.10 121.83 35.83 124.95 C 29.47 125.64 22.97 125.68 16.79 123.81 C 13.85 120.02 11.06 116.05 8.97 111.72 C 8.87 111.15 8.68 110.03 8.58 109.46 Z" />
<path fill="#e12017" d=" M 38.40 111.02 C 43.76 110.98 49.11 111.02 54.47 111.11 C 54.50 114.72 54.50 118.34 54.48 121.95 C 49.12 122.06 43.76 122.07 38.40 121.96 C 38.37 118.31 38.37 114.67 38.40 111.02 Z" />
<path fill="#000b6d" d=" M 56.17 113.82 C 56.34 116.26 56.64 118.69 56.79 121.14 C 56.99 126.36 56.89 131.60 57.24 136.82 C 74.84 137.08 92.44 136.80 110.05 136.97 C 113.55 137.00 117.04 136.76 120.52 136.41 C 121.01 137.16 121.50 137.90 122.00 138.65 C 123.81 135.87 125.56 133.06 127.27 130.22 C 132.26 130.94 137.53 131.91 142.45 130.30 C 145.60 127.99 148.08 124.82 151.55 122.90 C 144.49 132.37 135.02 139.94 124.61 145.45 C 106.77 146.67 88.85 145.79 70.98 146.05 C 62.44 146.28 53.86 145.44 45.37 146.60 C 34.27 141.30 24.51 133.36 16.79 123.81 C 22.97 125.68 29.47 125.64 35.83 124.95 C 36.10 121.83 36.46 118.72 36.66 115.59 L 36.71 114.65 C 37.07 122.43 36.82 130.22 36.92 138.00 C 43.31 138.00 49.69 138.00 56.08 138.00 C 56.15 129.94 56.03 121.88 56.17 113.82 Z" />
<path fill="#e11f14" d=" M 110.14 115.98 C 118.05 116.08 125.96 115.91 133.87 115.97 C 129.98 122.52 126.08 129.09 122.02 135.54 C 117.89 129.13 114.09 122.51 110.14 115.98 Z" />
<path fill="#001076" d=" M 110.81 120.31 C 114.10 125.64 117.17 131.11 120.52 136.41 C 117.04 136.76 113.55 137.00 110.05 136.97 C 92.44 136.80 74.84 137.08 57.24 136.82 C 56.89 131.60 56.99 126.36 56.79 121.14 C 68.85 120.77 80.91 121.24 92.97 121.11 C 98.93 121.18 104.92 121.36 110.81 120.31 Z" />
<path fill="#e01a0f" d=" M 38.40 121.96 C 43.76 122.07 49.12 122.06 54.48 121.95 C 54.52 126.79 54.51 131.63 54.46 136.47 C 49.12 136.50 43.77 136.50 38.42 136.48 C 38.36 131.64 38.36 126.80 38.40 121.96 Z" />
<path fill="#000068" d=" M 70.98 146.05 C 88.85 145.79 106.77 146.67 124.61 145.45 C 100.37 158.25 69.99 158.64 45.37 146.60 C 53.86 145.44 62.44 146.28 70.98 146.05 Z" />
</svg>
